<svg xmlns="http://www.w3.org/2000/svg" width="16.184" height="18.509" viewBox="0 0 16.184 18.509">
  <g id="checklist" transform="translate(-36.555 -5.05)">
    <path id="Path_507" data-name="Path 507" d="M268.509,300.944a3.131,3.131,0,1,0,3.131-3.131A3.131,3.131,0,0,0,268.509,300.944Zm4.185,2.472a2.686,2.686,0,0,1-2.1.005v-.772a.626.626,0,0,1,.613-.625h.882a.621.621,0,0,1,.607.625ZM271,300.4a.663.663,0,0,0,.647-.627h.713v.729a.719.719,0,0,1-1.438,0v-.1Zm-.078-.442v-.139a.712.712,0,0,1,.713-.7,1.02,1.02,0,0,1,.242.05,1.046,1.046,0,0,0,.3.049.328.328,0,0,1,.253.117h-.809a.419.419,0,0,0-.417.419.208.208,0,0,1-.205.208Zm3.4.985a2.638,2.638,0,0,1-1.19,2.23v-.526a1.064,1.064,0,0,0-1.05-1.067h-.094a1.142,1.142,0,0,0,.812-1.078v-.744a.244.244,0,0,0,.16-.214.781.781,0,0,0-.78-.777.594.594,0,0,1-.172-.026,1.4,1.4,0,0,0-.376-.07,1.156,1.156,0,0,0-1.156,1.147v.684a1.146,1.146,0,0,0,.817,1.078H271.2a1.068,1.068,0,0,0-1.055,1.067v.533a2.652,2.652,0,0,1-1.2-2.238,2.688,2.688,0,0,1,5.376,0Z" transform="translate(-223.401 -281.968)"/>
    <path id="Path_508" data-name="Path 508" d="M360.516,421h-.18a.221.221,0,0,0,0,.443h.18a.221.221,0,0,0,0-.443Z" transform="translate(-311.629 -400.612)"/>
    <path id="Path_509" data-name="Path 509" d="M66.221,44.08a.221.221,0,0,0,.221-.221v-.138a.221.221,0,0,0-.442,0v.138A.221.221,0,0,0,66.221,44.08Z" transform="translate(-28.36 -37.032)"/>
    <path id="Path_510" data-name="Path 510" d="M66.442,71.038V69.172a.221.221,0,0,0-.442,0v1.866a.221.221,0,1,0,.442,0Z" transform="translate(-28.36 -61.545)"/>
    <path id="Path_511" data-name="Path 511" d="M176.453,236.443h4.462a.221.221,0,1,0,0-.443h-4.462a.221.221,0,1,0,0,.443Z" transform="translate(-134.527 -222.434)"/>
    <path id="Path_512" data-name="Path 512" d="M93.038,239.253l-.5.475-.2-.2a.221.221,0,1,0-.313.313l.355.355a.221.221,0,0,0,.309,0l.653-.625a.221.221,0,0,0-.306-.32Z" transform="translate(-53.364 -225.508)"/>
    <path id="Path_513" data-name="Path 513" d="M72.135,212.646a1.512,1.512,0,1,0,1.512,1.512A1.512,1.512,0,0,0,72.135,212.646Zm0,2.582a1.07,1.07,0,1,1,1.07-1.07A1.07,1.07,0,0,1,72.135,215.228Z" transform="translate(-32.812 -199.941)"/>
    <path id="Path_514" data-name="Path 514" d="M176.453,256.442h2.975a.221.221,0,1,0,0-.442h-2.975a.221.221,0,1,0,0,.442Z" transform="translate(-134.527 -241.697)"/>
    <path id="Path_515" data-name="Path 515" d="M93.039,330.011l-.5.475-.2-.2a.221.221,0,0,0-.313.313l.355.355a.221.221,0,0,0,.309,0l.653-.625a.221.221,0,0,0-.306-.32Z" transform="translate(-53.364 -312.919)"/>
    <path id="Path_516" data-name="Path 516" d="M72.135,303.408a1.512,1.512,0,1,0,1.512,1.512A1.512,1.512,0,0,0,72.135,303.408Zm0,2.582a1.07,1.07,0,1,1,1.07-1.07A1.07,1.07,0,0,1,72.135,305.99Z" transform="translate(-32.812 -287.356)"/>
    <path id="Path_517" data-name="Path 517" d="M176.453,145.443h4.462a.221.221,0,1,0,0-.443h-4.462a.221.221,0,0,0,0,.443Z" transform="translate(-134.527 -134.79)"/>
    <path id="Path_518" data-name="Path 518" d="M93.039,148.491l-.5.475-.2-.2a.221.221,0,0,0-.313.313l.355.355a.221.221,0,0,0,.309,0l.653-.625a.221.221,0,1,0-.306-.32Z" transform="translate(-53.364 -138.093)"/>
    <path id="Path_519" data-name="Path 519" d="M72.135,121.884a1.512,1.512,0,1,0,1.512,1.512A1.512,1.512,0,0,0,72.135,121.884Zm0,2.582a1.07,1.07,0,1,1,1.07-1.07A1.07,1.07,0,0,1,72.135,124.466Z" transform="translate(-32.812 -112.526)"/>
    <path id="Path_520" data-name="Path 520" d="M176.453,165.442h2.975a.221.221,0,0,0,0-.442h-2.975a.221.221,0,1,0,0,.442Z" transform="translate(-134.527 -154.052)"/>
    <path id="Path_521" data-name="Path 521" d="M50.461,14.965,49.268,14.5a.221.221,0,0,0-.247.062l-.384.445c-.051-.005-.1-.009-.154-.012l-.031-5.672a.221.221,0,0,0-.066-.156l-4-3.953a.581.581,0,0,0-.411-.168l-5.594.026A1.838,1.838,0,0,0,36.555,6.92l.057,11.9a1.841,1.841,0,0,0,1.836,1.83h.009l5.421-.036.376.858a.221.221,0,0,0,.219.132l.593-.044a3.735,3.735,0,0,0,.758.722l-.017.592a.221.221,0,0,0,.141.213l1.194.461a.221.221,0,0,0,.247-.062l.384-.445a4.142,4.142,0,0,0,1.045-.027l.411.429a.221.221,0,0,0,.248.05l1.173-.513a.221.221,0,0,0,.132-.219l-.044-.593a3.735,3.735,0,0,0,.722-.758l.592.017a.222.222,0,0,0,.213-.142l.461-1.194a.221.221,0,0,0-.062-.247l-.445-.384a4.146,4.146,0,0,0-.027-1.045L52.618,18a.221.221,0,0,0,.05-.248l-.513-1.173a.221.221,0,0,0-.219-.132l-.593.044a3.734,3.734,0,0,0-.758-.722l.017-.592A.221.221,0,0,0,50.461,14.965ZM47.7,9.112l-1.94.029H45.75a1.4,1.4,0,0,1-1.393-1.393L44.348,5.8ZM43.789,20.047a.22.22,0,0,0-.065.122l-5.271.034h-.007a1.4,1.4,0,0,1-1.393-1.39L37,6.92a1.4,1.4,0,0,1,1.386-1.4l5.52-.027.011,2.258A1.844,1.844,0,0,0,45.75,9.584h.009l2.251-.022.03,5.433a4.146,4.146,0,0,0-.448.044l-.411-.429a.221.221,0,0,0-.248-.05l-1.173.513a.221.221,0,0,0-.132.219l.044.593a3.733,3.733,0,0,0-.722.758l-.592-.017a.221.221,0,0,0-.213.141l-.046.119H41.926a.221.221,0,0,0,0,.442h2l-.114.295H41.926a.221.221,0,0,0,0,.442H43.67a.221.221,0,0,0,.075.143l.445.384a4.145,4.145,0,0,0,.027,1.045Zm7.273-3.2a.221.221,0,0,0,.194.089l.556-.041.388.888-.4.385a.221.221,0,0,0-.064.2,3.706,3.706,0,0,1,.029,1.146.221.221,0,0,0,.075.2l.416.359-.348.9-.555-.016a.222.222,0,0,0-.191.1,3.3,3.3,0,0,1-.785.824.221.221,0,0,0-.089.194l.041.556-.888.388-.385-.4a.221.221,0,0,0-.2-.064,3.711,3.711,0,0,1-1.146.029.221.221,0,0,0-.2.075l-.359.416-.9-.348.016-.555a.221.221,0,0,0-.1-.191,3.3,3.3,0,0,1-.824-.785.222.222,0,0,0-.194-.089l-.556.041-.388-.888.4-.385a.221.221,0,0,0,.064-.2,3.706,3.706,0,0,1-.029-1.146.221.221,0,0,0-.075-.2l-.416-.359.348-.9.555.016a.223.223,0,0,0,.191-.1,3.3,3.3,0,0,1,.785-.824.221.221,0,0,0,.089-.194l-.041-.556.888-.388.385.4a.221.221,0,0,0,.2.064,3.707,3.707,0,0,1,1.146-.029.222.222,0,0,0,.2-.075l.359-.416.9.348-.016.555a.221.221,0,0,0,.1.191,3.3,3.3,0,0,1,.824.785Z" transform="translate(0 0)"/>
  </g>
</svg>
