<svg xmlns="http://www.w3.org/2000/svg" width="12.441" height="15.924" viewBox="0 0 12.441 15.924">
  <g id="to-do-list" transform="translate(-56)">
    <path id="Path_522" data-name="Path 522" d="M116.544,152.571,118,150.821a.233.233,0,0,0-.359-.3l-1.246,1.5-.272-.443a.233.233,0,0,0-.4.245l.443.719A.233.233,0,0,0,116.544,152.571Z" transform="translate(-57.832 -145.76)"/>
    <path id="Path_523" data-name="Path 523" d="M115.724,250.823l.443.719a.233.233,0,0,0,.378.027L118,249.82a.233.233,0,1,0-.359-.3l-1.246,1.5-.272-.443a.233.233,0,1,0-.4.245Z" transform="translate(-57.833 -241.68)"/>
    <path id="Path_524" data-name="Path 524" d="M115.724,350.49l.443.719a.233.233,0,0,0,.378.027L118,349.487a.233.233,0,1,0-.359-.3l-1.246,1.5-.272-.443a.233.233,0,1,0-.4.245Z" transform="translate(-57.833 -338.247)"/>
    <path id="Path_525" data-name="Path 525" d="M68.208,157.834a.233.233,0,0,0-.233.233v1.7a.358.358,0,0,1-.358.358H56.824a.358.358,0,0,1-.358-.358V149.542a.233.233,0,0,0-.467,0v10.223a.825.825,0,0,0,.824.824H67.617a.825.825,0,0,0,.824-.824v-1.7A.233.233,0,0,0,68.208,157.834Z" transform="translate(0 -144.665)"/>
    <path id="Path_526" data-name="Path 526" d="M67.617,1.8H66.476V.834a.834.834,0,1,0-1.667,0V1.8H63.054V.834a.834.834,0,1,0-1.667,0V1.8H59.632V.834a.834.834,0,1,0-1.667,0V1.8H56.824A.825.825,0,0,0,56,2.622V3.789a.233.233,0,0,0,.467,0V2.622a.358.358,0,0,1,.358-.358h1.141v.37a.834.834,0,1,0,1.667,0v-.37h1.755v.37a.834.834,0,1,0,1.667,0v-.37h1.755v.37a.834.834,0,1,0,1.667,0v-.37h1.141a.358.358,0,0,1,.358.358v9.692a.233.233,0,0,0,.467,0V2.622a.825.825,0,0,0-.824-.824Zm-8.451.837a.367.367,0,0,1-.734,0V.834a.367.367,0,0,1,.734,0Zm3.422,0a.367.367,0,1,1-.734,0V.834a.367.367,0,1,1,.734,0Zm3.422,0a.367.367,0,0,1-.734,0V.834a.367.367,0,0,1,.734,0Z" transform="translate(0 0)"/>
    <path id="Path_527" data-name="Path 527" d="M198.97,179.645h4.914a.731.731,0,1,0,0-1.462H198.97a.731.731,0,1,0,0,1.462Zm0-1h4.914a.264.264,0,1,1,0,.529H198.97a.264.264,0,1,1,0-.529Z" transform="translate(-137.815 -172.641)"/>
    <path id="Path_528" data-name="Path 528" d="M198.97,278.858h4.914a.731.731,0,0,0,0-1.462H198.97a.731.731,0,1,0,0,1.462Zm0-1h4.914a.264.264,0,1,1,0,.529H198.97a.264.264,0,1,1,0-.529Z" transform="translate(-137.815 -268.768)"/>
    <path id="Path_529" data-name="Path 529" d="M198.97,378.07h4.914a.731.731,0,0,0,0-1.462H198.97a.731.731,0,0,0,0,1.462Zm0-1h4.914a.264.264,0,1,1,0,.529H198.97a.264.264,0,1,1,0-.529Z" transform="translate(-137.815 -364.895)"/>
  </g>
</svg>
