<svg xmlns="http://www.w3.org/2000/svg" xmlns:xlink="http://www.w3.org/1999/xlink" width="186.716" height="666.401" viewBox="0 0 186.716 666.401">
  <defs>
    <clipPath id="clip-path">
      <path id="Path_33" data-name="Path 33" d="M77.886,95.643a2.27,2.27,0,1,0,2.283,2.27,2.276,2.276,0,0,0-2.283-2.27Zm0,15.888a2.27,2.27,0,1,0,2.283,2.27,2.276,2.276,0,0,0-2.283-2.27Zm0,15.888a2.27,2.27,0,1,0,2.283,2.27A2.276,2.276,0,0,0,77.886,127.418Zm0,15.888a2.27,2.27,0,1,0,2.283,2.27,2.276,2.276,0,0,0-2.283-2.27Zm0,15.888a2.27,2.27,0,1,0,2.283,2.27A2.276,2.276,0,0,0,77.886,159.194Zm0,15.888a2.27,2.27,0,1,0,2.283,2.27A2.276,2.276,0,0,0,77.886,175.082ZM62.9,95.643a2.27,2.27,0,1,0,2.283,2.27,2.276,2.276,0,0,0-2.283-2.27Zm0,15.888a2.27,2.27,0,1,0,2.283,2.27,2.276,2.276,0,0,0-2.283-2.27Zm0,15.888a2.27,2.27,0,1,0,2.283,2.27,2.276,2.276,0,0,0-2.283-2.27Zm0,15.888a2.27,2.27,0,1,0,2.283,2.27,2.276,2.276,0,0,0-2.283-2.27Zm0,15.888a2.27,2.27,0,1,0,2.283,2.27,2.276,2.276,0,0,0-2.283-2.27Zm0,15.888a2.27,2.27,0,1,0,2.283,2.27,2.276,2.276,0,0,0-2.283-2.27ZM47.9,95.643a2.27,2.27,0,1,0,2.283,2.27,2.276,2.276,0,0,0-2.283-2.27Zm0,15.888a2.27,2.27,0,1,0,2.283,2.27,2.276,2.276,0,0,0-2.283-2.27Zm0,15.888a2.27,2.27,0,1,0,2.283,2.27,2.276,2.276,0,0,0-2.283-2.27Zm0,15.888a2.27,2.27,0,1,0,2.283,2.27,2.276,2.276,0,0,0-2.283-2.27Zm0,15.888a2.27,2.27,0,1,0,2.283,2.27,2.276,2.276,0,0,0-2.283-2.27Zm0,15.888a2.27,2.27,0,1,0,2.283,2.27,2.276,2.276,0,0,0-2.283-2.27ZM32.261,95.643a2.27,2.27,0,1,0,2.283,2.27,2.276,2.276,0,0,0-2.283-2.27Zm0,15.888a2.27,2.27,0,1,0,2.283,2.27,2.276,2.276,0,0,0-2.283-2.27Zm0,15.888a2.27,2.27,0,1,0,2.283,2.27,2.276,2.276,0,0,0-2.283-2.27Zm0,15.888a2.27,2.27,0,1,0,2.283,2.27,2.276,2.276,0,0,0-2.283-2.27Zm0,15.888a2.27,2.27,0,1,0,2.283,2.27,2.276,2.276,0,0,0-2.283-2.27Zm0,15.888a2.27,2.27,0,1,0,2.283,2.27,2.276,2.276,0,0,0-2.283-2.27ZM17.271,95.643a2.27,2.27,0,1,0,2.283,2.27,2.276,2.276,0,0,0-2.283-2.27Zm0,15.888a2.27,2.27,0,1,0,2.283,2.27,2.276,2.276,0,0,0-2.283-2.27Zm0,15.888a2.27,2.27,0,1,0,2.283,2.27,2.276,2.276,0,0,0-2.283-2.27Zm0,15.888a2.27,2.27,0,1,0,2.283,2.27,2.276,2.276,0,0,0-2.283-2.27Zm0,15.888a2.27,2.27,0,1,0,2.283,2.27,2.276,2.276,0,0,0-2.283-2.27Zm0,15.888a2.27,2.27,0,1,0,2.283,2.27,2.276,2.276,0,0,0-2.283-2.27ZM2.283,95.643a2.27,2.27,0,1,0,2.283,2.27,2.276,2.276,0,0,0-2.283-2.27Zm0,15.888a2.27,2.27,0,1,0,2.283,2.27,2.276,2.276,0,0,0-2.283-2.27Zm0,15.888a2.27,2.27,0,1,0,2.283,2.27,2.276,2.276,0,0,0-2.283-2.27Zm0,15.888a2.27,2.27,0,1,0,2.283,2.27,2.276,2.276,0,0,0-2.283-2.27Zm0,15.888a2.27,2.27,0,1,0,2.283,2.27,2.276,2.276,0,0,0-2.283-2.27Zm0,15.888a2.27,2.27,0,1,0,2.283,2.27,2.276,2.276,0,0,0-2.283-2.27ZM77.886,0A2.27,2.27,0,1,0,80.17,2.27,2.276,2.276,0,0,0,77.886,0Zm0,15.888a2.27,2.27,0,1,0,2.283,2.27A2.276,2.276,0,0,0,77.886,15.888Zm0,15.888a2.27,2.27,0,1,0,2.283,2.27A2.276,2.276,0,0,0,77.886,31.776Zm0,15.888a2.27,2.27,0,1,0,2.283,2.27,2.276,2.276,0,0,0-2.283-2.27Zm0,15.888a2.27,2.27,0,1,0,2.283,2.27,2.276,2.276,0,0,0-2.283-2.27Zm0,15.888a2.27,2.27,0,1,0,2.283,2.27A2.276,2.276,0,0,0,77.886,79.439ZM62.9,0A2.27,2.27,0,1,0,65.18,2.27,2.276,2.276,0,0,0,62.9,0Zm0,15.888a2.27,2.27,0,1,0,2.283,2.27,2.276,2.276,0,0,0-2.283-2.27Zm0,15.888a2.27,2.27,0,1,0,2.283,2.27,2.276,2.276,0,0,0-2.283-2.27Zm0,15.888a2.27,2.27,0,1,0,2.283,2.27,2.276,2.276,0,0,0-2.283-2.27Zm0,15.888a2.27,2.27,0,1,0,2.283,2.27,2.276,2.276,0,0,0-2.283-2.27Zm0,15.888a2.27,2.27,0,1,0,2.283,2.27,2.276,2.276,0,0,0-2.283-2.27ZM47.907,0A2.27,2.27,0,1,0,50.19,2.27,2.276,2.276,0,0,0,47.907,0Zm0,15.888a2.27,2.27,0,1,0,2.283,2.27,2.276,2.276,0,0,0-2.283-2.27Zm0,15.888a2.27,2.27,0,1,0,2.283,2.27,2.276,2.276,0,0,0-2.283-2.27Zm0,15.888a2.27,2.27,0,1,0,2.283,2.27,2.276,2.276,0,0,0-2.283-2.27Zm0,15.888a2.27,2.27,0,1,0,2.283,2.27,2.276,2.276,0,0,0-2.283-2.27Zm0,15.888a2.27,2.27,0,1,0,2.283,2.27,2.276,2.276,0,0,0-2.283-2.27ZM32.263,0a2.27,2.27,0,1,0,2.283,2.27A2.276,2.276,0,0,0,32.263,0Zm0,15.888a2.27,2.27,0,1,0,2.283,2.27A2.276,2.276,0,0,0,32.263,15.888Zm0,15.888a2.27,2.27,0,1,0,2.283,2.27A2.276,2.276,0,0,0,32.263,31.776Zm0,15.888a2.27,2.27,0,1,0,2.283,2.27,2.276,2.276,0,0,0-2.283-2.27Zm0,15.888a2.27,2.27,0,1,0,2.283,2.27,2.276,2.276,0,0,0-2.283-2.27Zm0,15.888a2.27,2.27,0,1,0,2.283,2.27A2.276,2.276,0,0,0,32.263,79.439ZM17.272,0a2.27,2.27,0,1,0,2.283,2.27A2.276,2.276,0,0,0,17.272,0Zm0,15.888a2.27,2.27,0,1,0,2.283,2.27A2.276,2.276,0,0,0,17.272,15.888Zm0,15.888a2.27,2.27,0,1,0,2.283,2.27A2.276,2.276,0,0,0,17.272,31.776Zm0,15.888a2.27,2.27,0,1,0,2.283,2.27,2.276,2.276,0,0,0-2.283-2.27Zm0,15.888a2.27,2.27,0,1,0,2.283,2.27,2.276,2.276,0,0,0-2.283-2.27Zm0,15.888a2.27,2.27,0,1,0,2.283,2.27A2.276,2.276,0,0,0,17.272,79.439ZM2.283,0A2.27,2.27,0,1,0,4.567,2.27,2.276,2.276,0,0,0,2.283,0Zm0,15.888a2.27,2.27,0,1,0,2.283,2.27,2.276,2.276,0,0,0-2.283-2.27Zm0,15.888a2.27,2.27,0,1,0,2.283,2.27,2.276,2.276,0,0,0-2.283-2.27Zm0,15.888a2.27,2.27,0,1,0,2.283,2.27,2.276,2.276,0,0,0-2.283-2.27Zm0,15.888a2.27,2.27,0,1,0,2.283,2.27,2.276,2.276,0,0,0-2.283-2.27Zm0,15.888a2.27,2.27,0,1,0,2.283,2.27,2.276,2.276,0,0,0-2.283-2.27Z" fill="#fff"/>
    </clipPath>
  </defs>
  <g id="Group_1125" data-name="Group 1125" transform="translate(3730.079 -2371.362)">
    <path id="Intersection_1" data-name="Intersection 1" d="M1800.324,868.361a111.527,111.527,0,0,1-55.749-96.559l-.045-321.478a111.455,111.455,0,0,1,55.721-96.544l130-75.053V943.4Z" transform="translate(-5474.109 2093.5)" fill="#1494ff" stroke="rgba(0,0,0,0)" stroke-miterlimit="10" stroke-width="1"/>
    <g id="Group_22" data-name="Group 22" transform="translate(-3584.281 2794.121) rotate(180)" opacity="0.62" clip-path="url(#clip-path)">
      <path id="Path_32" data-name="Path 32" d="M0,184.695H85.244V0H0Z" transform="translate(-2.537 -2.537)" fill="#fff"/>
    </g>
  </g>
</svg>
