<svg width="40" height="40" viewBox="0 0 40 40" fill="none" xmlns="http://www.w3.org/2000/svg">
<path d="M19.9991 15.1779C19.0454 15.1779 18.1131 15.4607 17.32 15.9906C16.527 16.5204 15.909 17.2736 15.544 18.1547C15.179 19.0359 15.0835 20.0055 15.2696 20.9409C15.4556 21.8763 15.9149 22.7355 16.5893 23.4099C17.2637 24.0843 18.1229 24.5436 19.0584 24.7297C19.9938 24.9157 20.9634 24.8202 21.8445 24.4553C22.7257 24.0903 23.4788 23.4722 24.0087 22.6792C24.5385 21.8862 24.8214 20.9539 24.8214 20.0001C24.8214 19.3668 24.6966 18.7398 24.4543 18.1547C24.2119 17.5697 23.8567 17.0381 23.409 16.5903C22.9612 16.1425 22.4296 15.7873 21.8445 15.545C21.2595 15.3026 20.6324 15.1779 19.9991 15.1779ZM39.3075 10.414C39.2972 8.91242 39.0207 7.42455 38.4908 6.01955C38.1005 4.99145 37.4966 4.05779 36.719 3.28019C35.9414 2.50259 35.0078 1.89873 33.9797 1.50844C32.5747 0.97851 31.0868 0.702005 29.5852 0.691775C27.0769 0.555664 26.338 0.555664 19.9991 0.555664C13.6602 0.555664 12.9214 0.555664 10.413 0.691775C8.91144 0.702005 7.42358 0.97851 6.01858 1.50844C4.99047 1.89873 4.05681 2.50259 3.27921 3.28019C2.50161 4.05779 1.89775 4.99145 1.50747 6.01955C0.977534 7.42455 0.701028 8.91242 0.690798 10.414C0.554687 12.9223 0.554688 13.6612 0.554688 20.0001C0.554688 26.339 0.554687 27.0779 0.690798 29.5862C0.711728 31.0931 0.98786 32.5855 1.50747 34.0001C1.89602 35.0235 2.49938 35.9518 3.27691 36.7223C4.05117 37.5046 4.98683 38.1085 6.01858 38.4918C7.42358 39.0217 8.91144 39.2982 10.413 39.3084C12.9214 39.4446 13.6602 39.4446 19.9991 39.4446C26.338 39.4446 27.0769 39.4446 29.5852 39.3084C31.0868 39.2982 32.5747 39.0217 33.9797 38.4918C35.0114 38.1085 35.9471 37.5046 36.7214 36.7223C37.4989 35.9518 38.1022 35.0235 38.4908 34.0001C39.0202 32.5882 39.2967 31.0941 39.3075 29.5862C39.4436 27.0779 39.4436 26.339 39.4436 20.0001C39.4436 13.6612 39.4436 12.9223 39.3075 10.414ZM34.3686 25.9696C34.3062 27.1695 34.0501 28.3514 33.6102 29.4696C33.2328 30.4023 32.6716 31.2496 31.9601 31.9611C31.2486 32.6726 30.4013 33.2337 29.4686 33.6112C28.3399 34.0265 27.1513 34.2564 25.9491 34.2918C24.413 34.2918 24.0047 34.2918 19.9991 34.2918C15.9936 34.2918 15.5852 34.2918 14.0491 34.2918C12.8469 34.2564 11.6584 34.0265 10.5297 33.6112C9.56544 33.2529 8.69467 32.6812 7.98247 31.939C7.27793 31.2414 6.73383 30.3987 6.38802 29.4696C5.97105 28.342 5.74753 27.1521 5.72691 25.9501C5.72691 24.414 5.72691 24.0057 5.72691 20.0001C5.72691 15.9946 5.72691 15.5862 5.72691 14.0501C5.74753 12.8481 5.97105 11.6582 6.38802 10.5307C6.74635 9.56642 7.318 8.69565 8.06024 7.98344C8.76089 7.28271 9.6027 6.73918 10.5297 6.389C11.6584 5.97368 12.8469 5.74385 14.0491 5.70844C15.5852 5.70844 15.9936 5.70844 19.9991 5.70844C24.0047 5.70844 24.413 5.70844 25.9491 5.70844C27.1513 5.74385 28.3399 5.97368 29.4686 6.389C30.4328 6.74732 31.3036 7.31897 32.0158 8.06122C32.7203 8.75879 33.2644 9.60148 33.6102 10.5307C34.0256 11.6594 34.2554 12.8479 34.2908 14.0501C34.2908 15.5862 34.2908 15.9946 34.2908 20.0001C34.2908 24.0057 34.4269 24.414 34.3686 25.9501V25.9696ZM31.2575 11.5029C31.026 10.8748 30.6609 10.3044 30.1876 9.83108C29.7143 9.35775 29.1439 8.99273 28.5158 8.76122C27.6534 8.46228 26.7451 8.31748 25.8325 8.33344C24.3158 8.33344 23.888 8.33344 19.9991 8.33344C16.1102 8.33344 15.6825 8.33344 14.1658 8.33344C13.2485 8.34241 12.3401 8.51356 11.4825 8.839C10.864 9.06 10.2996 9.4101 9.82693 9.86605C9.35422 10.322 8.98397 10.8733 8.7408 11.4834C8.45842 12.3494 8.32047 13.256 8.33247 14.1668C8.33247 15.6834 8.33247 16.1112 8.33247 20.0001C8.33247 23.889 8.33247 24.3168 8.33247 25.8334C8.35174 26.7497 8.52257 27.6564 8.83802 28.5168C9.06953 29.1449 9.43455 29.7152 9.90788 30.1886C10.3812 30.6619 10.9516 31.0269 11.5797 31.2584C12.4093 31.5636 13.2823 31.7342 14.1658 31.764C15.6825 31.764 16.1102 31.764 19.9991 31.764C23.888 31.764 24.3158 31.764 25.8325 31.764C26.7497 31.755 27.6582 31.5839 28.5158 31.2584C29.1439 31.0269 29.7143 30.6619 30.1876 30.1886C30.6609 29.7152 31.026 29.1449 31.2575 28.5168C31.5829 27.6591 31.7541 26.7507 31.763 25.8334C31.763 24.3168 31.763 23.889 31.763 20.0001C31.763 16.1112 31.763 15.6834 31.763 14.1668C31.7636 13.2486 31.5921 12.3385 31.2575 11.4834V11.5029ZM19.9991 27.4279C19.0246 27.4279 18.0597 27.2356 17.1596 26.8621C16.2595 26.4886 15.4419 25.9412 14.7538 25.2512C14.0656 24.5612 13.5203 23.7422 13.1491 22.8411C12.778 21.9401 12.5882 20.9746 12.5908 20.0001C12.5908 18.5302 13.0269 17.0934 13.844 15.8714C14.661 14.6495 15.8222 13.6975 17.1806 13.1359C18.539 12.5743 20.0335 12.4283 21.4748 12.7165C22.9162 13.0047 24.2397 13.714 25.2777 14.7548C26.3157 15.7955 27.0216 17.1208 27.306 18.563C27.5904 20.0051 27.4405 21.4992 26.8754 22.8561C26.3102 24.213 25.3551 25.3717 24.1311 26.1855C22.907 26.9994 21.469 27.4317 19.9991 27.4279ZM27.7769 14.0307C27.3471 13.9852 26.9493 13.7822 26.6602 13.4609C26.3711 13.1396 26.2111 12.7226 26.2111 12.2904C26.2111 11.8582 26.3711 11.4412 26.6602 11.1199C26.9493 10.7986 27.3471 10.5956 27.7769 10.5501C28.2067 10.5956 28.6045 10.7986 28.8936 11.1199C29.1827 11.4412 29.3427 11.8582 29.3427 12.2904C29.3427 12.7226 29.1827 13.1396 28.8936 13.4609C28.6045 13.7822 28.2067 13.9852 27.7769 14.0307Z" fill="#E4405F"/>
</svg>
