<svg width="40" height="40" viewBox="0 0 40 40" fill="none" xmlns="http://www.w3.org/2000/svg">
<path d="M36.4691 0.555936H3.53021C3.15994 0.550794 2.79229 0.618639 2.44825 0.755599C2.10421 0.892558 1.79052 1.09595 1.52509 1.35415C1.25966 1.61236 1.0477 1.92032 0.901304 2.26045C0.754907 2.60059 0.676947 2.96623 0.671875 3.33649V36.6643C0.676947 37.0345 0.754907 37.4002 0.901304 37.7403C1.0477 38.0804 1.25966 38.3884 1.52509 38.6466C1.79052 38.9048 2.10421 39.1082 2.44825 39.2452C2.79229 39.3821 3.15994 39.45 3.53021 39.4448H36.4691C36.8394 39.45 37.207 39.3821 37.5511 39.2452C37.8951 39.1082 38.2088 38.9048 38.4742 38.6466C38.7396 38.3884 38.9516 38.0804 39.098 37.7403C39.2444 37.4002 39.3224 37.0345 39.3274 36.6643V3.33649C39.3224 2.96623 39.2444 2.60059 39.098 2.26045C38.9516 1.92032 38.7396 1.61236 38.4742 1.35415C38.2088 1.09595 37.8951 0.892558 37.5511 0.755599C37.207 0.618639 36.8394 0.550794 36.4691 0.555936ZM12.3969 33.1059H6.56354V15.6059H12.3969V33.1059ZM9.48021 13.1559C8.67572 13.1559 7.90418 12.8364 7.33532 12.2675C6.76646 11.6986 6.44688 10.9271 6.44688 10.1226C6.44688 9.31811 6.76646 8.54657 7.33532 7.97771C7.90418 7.40885 8.67572 7.08927 9.48021 7.08927C9.9074 7.04082 10.34 7.08315 10.7497 7.21349C11.1594 7.34382 11.5369 7.55922 11.8576 7.84558C12.1783 8.13195 12.4348 8.48281 12.6105 8.87521C12.7862 9.2676 12.877 9.69268 12.877 10.1226C12.877 10.5525 12.7862 10.9776 12.6105 11.37C12.4348 11.7624 12.1783 12.1133 11.8576 12.3996C11.5369 12.686 11.1594 12.9014 10.7497 13.0317C10.34 13.1621 9.9074 13.2044 9.48021 13.1559ZM33.4358 33.1059H27.6024V23.7143C27.6024 21.3615 26.7663 19.8254 24.6469 19.8254C23.9909 19.8302 23.3522 20.0359 22.8168 20.4149C22.2814 20.7938 21.875 21.3278 21.6524 21.9448C21.5003 22.4018 21.4343 22.8832 21.458 23.3643V33.0865H15.6247C15.6247 33.0865 15.6247 17.1809 15.6247 15.5865H21.458V18.0559C21.9879 17.1364 22.7586 16.3789 23.6872 15.8649C24.6157 15.351 25.6669 15.1001 26.7274 15.1393C30.6163 15.1393 33.4358 17.6476 33.4358 23.0337V33.1059Z" fill="#0A66C2"/>
</svg>
