<svg width="40" height="40" viewBox="0 0 40 40" fill="none" xmlns="http://www.w3.org/2000/svg">
<path d="M19.9874 0.555664C16.1417 0.555664 12.3823 1.69606 9.18467 3.83264C5.98704 5.96923 3.4948 9.00603 2.0231 12.559C0.551394 16.112 0.166329 20.0217 0.916597 23.7935C1.66687 27.5654 3.51877 31.0301 6.23812 33.7494C8.95748 36.4688 12.4221 38.3207 16.194 39.0709C19.9659 39.8212 23.8755 39.4361 27.4285 37.9644C30.9815 36.4927 34.0183 34.0005 36.1549 30.8029C38.2915 27.6052 39.4319 23.8459 39.4319 20.0001C39.4321 17.4466 38.9293 14.918 37.9522 12.5588C36.9751 10.1996 35.5428 8.05596 33.7372 6.25034C31.9316 4.44471 29.7879 3.01245 27.4287 2.03535C25.0695 1.05825 22.541 0.555452 19.9874 0.555664ZM26.1698 30.0188C26.097 30.2003 25.9863 30.3641 25.845 30.4993C25.7037 30.6345 25.5352 30.7379 25.3507 30.8026C25.1662 30.8673 24.97 30.8919 24.7752 30.8745C24.5805 30.8572 24.3917 30.7985 24.2215 30.7023L18.9429 26.6007L15.5551 29.7262C15.4765 29.7843 15.3845 29.8217 15.2877 29.8349C15.1909 29.8481 15.0922 29.8368 15.0009 29.8019L15.6504 23.991L15.6712 24.0075L15.6844 23.8928C15.6844 23.8928 25.1831 15.2449 25.57 14.8764C25.9617 14.5089 25.8325 14.4292 25.8325 14.4292C25.8548 13.9809 25.1295 14.4292 25.1295 14.4292L12.5441 22.5259L7.30286 20.7409C7.30286 20.7409 6.49786 20.4522 6.42202 19.8173C6.3423 19.1873 7.32909 18.8451 7.32909 18.8451L28.1677 10.5666C28.1677 10.5666 29.8808 9.80338 29.8808 11.0673L26.1698 30.0188Z" fill="#131418"/>
</svg>
