<svg width="40" height="32" viewBox="0 0 40 32" fill="none" xmlns="http://www.w3.org/2000/svg">
<path d="M39.4436 3.94518C37.982 4.57925 36.4364 4.99841 34.8547 5.18962C36.5234 4.19275 37.7738 2.62448 38.3741 0.775733C36.806 1.70919 35.0895 2.36687 33.2991 2.72018C32.1024 1.4224 30.5088 0.558532 28.7682 0.264055C27.0276 -0.0304208 25.2385 0.261152 23.6815 1.09305C22.1245 1.92494 20.8876 3.2501 20.1649 4.86069C19.4421 6.47129 19.2744 8.27621 19.688 9.9924C16.5175 9.83203 13.4161 9.00648 10.5854 7.56935C7.75471 6.13223 5.258 4.11569 3.25747 1.65073C2.55579 2.87606 2.18709 4.26372 2.18802 5.67573C2.18553 6.98703 2.50733 8.2786 3.12477 9.43544C3.7422 10.5923 4.63611 11.5785 5.72691 12.3063C4.45909 12.2718 3.21835 11.9316 2.11024 11.3146V11.4118C2.11975 13.2491 2.76357 15.0267 3.9328 16.444C5.10203 17.8613 6.72491 18.8311 8.52691 19.1896C7.83324 19.4007 7.11306 19.512 6.38802 19.5202C5.88614 19.5143 5.38551 19.4688 4.8908 19.3841C5.40396 20.9645 6.39701 22.3457 7.73178 23.3355C9.06655 24.3252 10.6766 24.8743 12.338 24.9063C9.53258 27.1138 6.06891 28.3185 2.49913 28.3285C1.84917 28.3306 1.19973 28.2917 0.554688 28.2118C4.19941 30.5651 8.44682 31.8144 12.7852 31.8091C15.7791 31.8402 18.7491 31.2744 21.5219 30.1448C24.2946 29.0152 26.8145 27.3444 28.9342 25.23C31.054 23.1157 32.7313 20.6001 33.868 17.8303C35.0047 15.0604 35.5781 12.0919 35.5547 9.09795C35.5547 8.7674 35.5547 8.4174 35.5547 8.0674C37.0805 6.92953 38.3964 5.53462 39.4436 3.94518Z" fill="#1DA1F2"/>
</svg>
