<svg width="40" height="40" viewBox="0 0 40 40" fill="none" xmlns="http://www.w3.org/2000/svg">
<path d="M39.4436 9.40289C39.4217 8.564 39.3568 7.72679 39.2491 6.89455C39.1039 6.16563 38.862 5.45938 38.5297 4.79455C38.1821 4.07337 37.7154 3.41599 37.1491 2.85011C36.5776 2.29051 35.9214 1.82459 35.2047 1.46955C34.539 1.14375 33.8327 0.908335 33.1047 0.769553C32.2804 0.64608 31.4491 0.574642 30.6158 0.555664H9.40191C8.56302 0.577513 7.72581 0.642413 6.89358 0.750108C6.16465 0.895297 5.4584 1.13725 4.79358 1.46955C4.07239 1.8171 3.41502 2.28383 2.84913 2.85011C2.28953 3.4216 1.82361 4.07782 1.46858 4.79455C1.14277 5.46026 0.907358 6.16651 0.768576 6.89455C0.645103 7.71887 0.573665 8.55014 0.554688 9.38344C0.554687 9.75289 0.554688 10.2779 0.554688 10.4334V29.5668C0.554688 29.7807 0.554688 30.2473 0.554688 30.5973C0.576536 31.4362 0.641436 32.2734 0.749132 33.1057C0.89432 33.8346 1.13628 34.5408 1.46858 35.2057C1.81612 35.9268 2.28286 36.5842 2.84913 37.1501C3.42062 37.7097 4.07684 38.1756 4.79358 38.5307C5.45928 38.8565 6.16553 39.0919 6.89358 39.2307C7.71789 39.3541 8.54917 39.4256 9.38247 39.4446H30.5964C31.4352 39.4227 32.2725 39.3578 33.1047 39.2501C33.8336 39.1049 34.5399 38.863 35.2047 38.5307C35.9259 38.1831 36.5832 37.7164 37.1491 37.1501C37.7087 36.5786 38.1747 35.9224 38.5297 35.2057C38.8555 34.54 39.0909 33.8337 39.2297 33.1057C39.3532 32.2813 39.4246 31.4501 39.4436 30.6168C39.4436 30.2473 39.4436 29.7807 39.4436 29.5668V10.4334C39.4436 10.2779 39.4436 9.75289 39.4436 9.40289ZM20.4464 33.6112C18.1112 33.5997 15.8169 32.9977 13.7769 31.8612L6.38802 33.8057L8.33247 26.5723C7.07852 24.4654 6.40744 22.063 6.38802 19.6112C6.39576 16.8558 7.21869 14.1643 8.75317 11.8757C10.2876 9.58702 12.465 7.80364 15.0111 6.75011C17.5572 5.69658 20.3581 5.42002 23.061 5.95527C25.764 6.49051 28.2481 7.81362 30.2005 9.75795C32.153 11.7023 33.4864 14.1809 34.0329 16.8816C34.5793 19.5823 34.3144 22.3843 33.2715 24.9347C32.2286 27.4852 30.4543 29.67 28.172 31.2139C25.8898 32.7579 23.2017 33.592 20.4464 33.6112ZM20.4464 8.08066C18.3849 8.10425 16.3665 8.67369 14.5966 9.73099C12.8267 10.7883 11.3687 12.2957 10.3708 14.0997C9.37297 15.9038 8.87098 17.94 8.91596 20.0011C8.96095 22.0623 9.5513 24.0747 10.6269 25.8334L10.8991 26.2807L9.73246 30.539L14.1658 29.3334L14.5936 29.5862C16.3622 30.628 18.3743 31.1847 20.4269 31.2001C23.5211 31.2001 26.4886 29.9709 28.6765 27.783C30.8644 25.5951 32.0936 22.6276 32.0936 19.5334C32.0936 16.4392 30.8644 13.4718 28.6765 11.2839C26.4886 9.09594 23.5211 7.86678 20.4269 7.86678L20.4464 8.08066ZM27.2519 24.6473C26.9972 25.0721 26.6562 25.4387 26.2509 25.7234C25.8457 26.0081 25.3851 26.2046 24.8991 26.3001C24.173 26.4328 23.4254 26.3861 22.7214 26.164C22.059 25.9569 21.4097 25.7102 20.7769 25.4251C18.3731 24.2189 16.323 22.41 14.8269 20.1751C14.0139 19.1396 13.5206 17.8895 13.4075 16.5779C13.3959 16.033 13.499 15.4918 13.71 14.9894C13.921 14.4869 14.2353 14.0344 14.6325 13.6612C14.7494 13.5286 14.893 13.422 15.0537 13.3483C15.2145 13.2746 15.389 13.2355 15.5658 13.2334H16.1102C16.3241 13.2334 16.6158 13.2334 16.888 13.8362C17.1602 14.439 17.8797 16.2473 17.9769 16.4223C18.0247 16.5156 18.0496 16.6189 18.0496 16.7237C18.0496 16.8285 18.0247 16.9318 17.9769 17.0251C17.891 17.2364 17.7729 17.4332 17.6269 17.6084C17.4519 17.8223 17.2575 18.0751 17.1019 18.2307C16.9464 18.3862 16.7519 18.5807 16.9464 18.9307C17.4754 19.8235 18.1303 20.6356 18.8908 21.3418C19.719 22.0736 20.6659 22.6588 21.6908 23.0723C22.0408 23.2473 22.2547 23.2279 22.4491 23.0723C22.6436 22.9168 23.3241 22.0612 23.5575 21.7112C23.7908 21.3612 24.0241 21.4196 24.3352 21.5362C24.6464 21.6529 26.3769 22.489 26.7269 22.664C27.0769 22.839 27.2908 22.9168 27.388 23.0723C27.4723 23.5812 27.4255 24.1032 27.2519 24.589V24.6473Z" fill="#25D366"/>
</svg>
