<svg xmlns:inkscape="http://www.inkscape.org/namespaces/inkscape" xmlns:rdf="http://www.w3.org/1999/02/22-rdf-syntax-ns#" xmlns="http://www.w3.org/2000/svg" xmlns:cc="http://creativecommons.org/ns#" xmlns:dc="http://purl.org/dc/elements/1.1/" xmlns:sodipodi="http://sodipodi.sourceforge.net/DTD/sodipodi-0.dtd" xmlns:svg="http://www.w3.org/2000/svg" xmlns:ns1="http://sozi.baierouge.fr" xmlns:xlink="http://www.w3.org/1999/xlink" id="svg2443" sodipodi:docname="agone_Notes.svg" viewBox="0 0 524.71 680" sodipodi:version="0.32" version="1.0" inkscape:output_extension="org.inkscape.output.svg.inkscape" inkscape:version="0.46" sodipodi:docbase="/home/gilles/HOME/abc/2009/com communication/images notes">
  <sodipodi:namedview id="base" bordercolor="#666666" inkscape:pageshadow="2" inkscape:window-y="25" pagecolor="#ffffff" inkscape:window-height="975" inkscape:zoom="0.65312309" inkscape:window-x="0" showgrid="false" borderopacity="1.0" inkscape:current-layer="layer1" inkscape:cx="581.23978" inkscape:cy="565.51832" showguides="true" inkscape:guide-bbox="true" inkscape:window-width="1680" inkscape:pageopacity="0.0" inkscape:document-units="px"/>
  <g id="layer1" inkscape:label="Calque 1" inkscape:groupmode="layer" transform="translate(-127.07 -139.58)">
    <g id="g3574" transform="matrix(1.0172 0 0 1.0172 -2.1809 -14.066)">
      <rect id="rect2451" style="stroke-linejoin:round;fill-opacity:.63950;stroke:#000000;stroke-linecap:round;stroke-width:3;fill:#faff65" ry="2.7988" height="624.29" width="512.86" y="193.79" x="128.57"/>
      <path id="path3422" sodipodi:rx="29.285715" sodipodi:ry="29.285715" style="stroke-linejoin:round;stroke:#000000;stroke-linecap:round;stroke-width:3;fill:#ffffff" sodipodi:type="arc" d="m258.57 234.51a29.286 29.286 0 1 1 -58.57 0 29.286 29.286 0 1 1 58.57 0z" transform="translate(57 6.4286)" sodipodi:cy="234.50504" sodipodi:cx="229.28572"/>
      <path id="path3424" sodipodi:rx="29.285715" sodipodi:ry="29.285715" style="stroke-linejoin:round;stroke:#000000;stroke-linecap:round;stroke-width:3;fill:#ffffff" sodipodi:type="arc" d="m258.57 234.51a29.286 29.286 0 1 1 -58.57 0 29.286 29.286 0 1 1 58.57 0z" transform="translate(-41.571 6.4286)" sodipodi:cy="234.50504" sodipodi:cx="229.28572"/>
      <path id="path3426" sodipodi:rx="29.285715" sodipodi:ry="29.285715" style="stroke-linejoin:round;stroke:#000000;stroke-linecap:round;stroke-width:3;fill:#fefefe" sodipodi:type="arc" d="m258.57 234.51a29.286 29.286 0 1 1 -58.57 0 29.286 29.286 0 1 1 58.57 0z" transform="translate(352.71 6.4286)" sodipodi:cy="234.50504" sodipodi:cx="229.28572"/>
      <path id="path3430" sodipodi:rx="29.285715" sodipodi:ry="29.285715" style="stroke-linejoin:round;stroke:#000000;stroke-linecap:round;stroke-width:3;fill:#ffffff" sodipodi:type="arc" d="m258.57 234.51a29.286 29.286 0 1 1 -58.57 0 29.286 29.286 0 1 1 58.57 0z" transform="translate(254.14 6.4286)" sodipodi:cy="234.50504" sodipodi:cx="229.28572"/>
      
      
      
      
      
      
      <path id="path3506" sodipodi:nodetypes="cssssssssssssssssssssssc" style="fill-rule:evenodd;fill:#ffffff" d="m173.77 162.42v10.29c0 3.61 0.84 5.54 1.62 8.66 0.87 3.46-1.46 5.3-2.17 8.12-0.65 2.61 0.37 5.31 0.82 7.1 0.58 2.34-0.61 4.39 0.06 7.11 0.68 2.68 1.58 5.55 1.15 7.24-0.83 3.33-1.48 4.31-1.48 7.78 0 3.92-0.33 4.52 3.24 5.41 1.23 0.31 2.12 4.83 3.25 5.96 2.78 2.77 2.79 5.45 5.96 7.03 2.65 1.33 5.23-2.1 6.49-3.79 1.59-2.11 1.39-3.24 5.42-3.24 0.71 0 4.95-3.84 5.95-4.33 2.2-1.1 1.75-5.5 1.29-8.26-0.59-3.49-1.85-6.05-1.9-8.53-0.04-2.11-0.61-6.43-0.61-8.39 0-3.92-0.23-2.9-0.4-6.22-0.13-2.32-0.49-6.19 0-8.12 0.61-2.45 0.54-5.08 0.54-8.12 0-3.7-4.28-8.41-6.5-11.37-1.69-2.26-2.35-3.34-5.41-4.87-2.86-1.43-6.51-1.08-9.75-1.08h-2.16"/>
      <path id="path3512" sodipodi:nodetypes="csssssssssssssssssssssssssssc" style="fill-rule:evenodd;fill:#ffffff" d="m274.99 151.05c-4.17 0-3.32 5.26-2.16 7.58 0.87 1.74 2.51 3.93 2.71 4.33 1.22 2.46 0.23 1.93-1.63 3.79-2.49 2.49-4.33 3.52-4.33 7.58 0 3.45 0.96 5.43 2.17 7.04 0.23 0.3 1.38 5.83 1.62 7.03 0.92 4.62-0.75 1.89 1.02 6.09 1.1 2.63 1.21 5.28 1.21 7.99 0 3.28 0.48 2.02 0.48 5.95 0 2.95-0.54 5.18-0.54 8.12 0 3.35 0.03 4.9 1.62 6.5 1.84 1.84 2.34 3.51 4.87 5.41 2.01 1.51 4.69 1.08 7.58 1.08 2.74 0 6.2-0.06 8.12-0.54 2.01-0.5 1.99-2.7 5.95-2.7 0.8 0 1.63-5.93 1.63-7.04 0-2.94-4.36-5.84-4.53-8.8-0.24-4.07 0.61-3.44 0.4-7.78-0.07-1.45 0.34-5.59 0.34-7.24 0-3.07 0.88-4.06 1.62-7.04 0.72-2.85 0.43-6.02 1.09-8.66 0.7-2.81 0.54-4.89 1.08-7.03 0.62-2.5-0.54-5.45-0.54-8.12v-3.79c0-2.73-6.19 0.84-8.12-1.09-2.35-2.34-6.37-3.74-9.21-4.87-2.12-0.85-3.55-1.62-6.49-1.62-1.91 0-4.17-1.28-5.96-2.17z"/>
      <path id="path3428" sodipodi:rx="29.285715" sodipodi:ry="29.285715" style="stroke-linejoin:round;stroke:#000000;stroke-linecap:round;stroke-width:3;fill:#fefffd" sodipodi:type="arc" d="m258.57 234.51a29.286 29.286 0 1 1 -58.57 0 29.286 29.286 0 1 1 58.57 0z" transform="translate(155.57 6.4286)" sodipodi:cy="234.50504" sodipodi:cx="229.28572"/>
      <path id="path3518" sodipodi:nodetypes="csssssssssssssssssssssc" style="fill-rule:evenodd;fill:#ffffff" d="m375.14 152.68c0 3.06 1.8 4.51 2.71 8.12 1.32 5.3-2.55 8.08-5.42 11.91-2.29 3.05 0.07 7.64 2.17 9.74 2.04 2.04 2.09 4.63 1.62 6.5-0.94 3.75-2.03 2.86-2.03 7.91 0 3.48 0.38 2.39 0.41 6.29 0.01 1.77 0.11 5.74 0.54 7.45 0.71 2.83 1.08 5.06 1.08 8.12 0 2.08 3.99 4.7 5.42 5.41 3.6 1.8 6.03 2.17 10.28 2.17 3.39 0 5.07-2.43 6.5-4.33 1.42-1.9 4.91-0.03 7.03-1.09 1.76-0.88-1.96-6.69-1.96-8.32 0-2.96 0.2-4.76 0.2-7.65 0-3.15-0.25-4.7-0.2-8.12 0.04-2.73 1.04-5.9-0.2-8.39-1.37-2.74 0.41-6.76-1.08-9.74-1.87-3.73-1.64-6.23-5.42-8.12-2.38-1.19-4.15-3.98-5.41-6.5-1.61-3.22-3.54-5.16-5.95-7.57-1.48-1.48-4.84-2.15-5.96-2.71-2.07-1.03-1.43-1.08-4.33-1.08z"/>
      <path id="path3520" sodipodi:nodetypes="csssssssssssssssssc" style="fill-rule:evenodd;fill:#ffffff" d="m469.33 174.33c-3.73-1.86-1.08 8.28-1.08 12.45v8.12c0 3.11-0.37 5.82-1.08 8.66-0.72 2.86 0.74 4.6 0 7.58-0.62 2.47-0.55 5.59-0.55 8.12 0 3.3 1.26 3.7 3.79 4.33 3.07 0.77 6.17 1.54 8.66 2.17 2.33 0.58 7.9-0.49 10.29-1.09 3.8-0.95 4.57-2.06 5.41-5.41 1.2-4.78-5.44-3.3-3.92-10.56 0.79-3.76 0.84-2.89 2.64-6.49 1.3-2.61 5.07-4.93 5.07-7.85 0-3.02 0.54-6.52 0.54-9.75 0-3.26-0.51-5.92-2.16-7.57-1.55-1.55-6.38-1.09-8.66-1.09-0.01 0-8.91-7.3-11.37-8.12-4.5-1.5-10.82-2.7-5.41 2.71 0.46 0.46 1.08 0.72 1.62 1.08"/>
      <path id="path3522" sodipodi:nodetypes="cssssssssssssssssc" style="fill-rule:evenodd;fill:#ffffff" d="m565.15 174.87c1.55 1.56 2.7 7.76 2.7 11.91 0 2.79-1.17 5.06-0.54 7.58 0.67 2.68 1.76 5.23 1.76 8.12 0 1.71-0.06 6.03 1.49 7.58 0.66 0.66 0.62 7.2 1.08 8.12 1.14 2.28 2.54 4.7 4.33 6.49 2.01 2.01 3.44 2.17 6.5 2.17 3.98 0 5.16-2.37 7.04-4.87 2.26-3.03 0.15-10.59 1.08-12.45 0.3-0.62 4.85-4.04 5.01-4.61 1.4-5.16 1.75-7.58 4.73-9.47 3.13-1.98 1.08-6.47 1.08-10.28v-8.67c0-2.99-7.32-2.16-9.74-2.16-3.52 0-7.17-1.08-10.83-1.08-3.03 0-6.47-0.94-9.2-1.63-0.55-0.14-1.08-0.36-1.62-0.54"/>
      <path id="path3528" sodipodi:nodetypes="cssc" style="stroke:#000000;stroke-linecap:round;stroke-width:2.8928;fill:none" d="m172.56 193.7c2.17 1.89 1.02 4.99 1.02 8.57 0 1.69 1.05 3.91 1.05 6.89 0 3.51-0.54 4.36-1.52 6.43"/>
      <path id="path3530" sodipodi:nodetypes="cssssssssssssssssssssssc" style="stroke:#000000;stroke-linecap:round;stroke-width:3;fill:none" d="m202.59 193.75c0.42 0.06-0.53-0.17-0.4 0.34 0.1 0.43-0.07 0.92-0.14 1.28-0.13 0.66-0.24 1.43-0.07 2.1 0.05 0.18 0.09 0.36 0.14 0.54 0.19 0.76 0.47 1.18 0.47 1.96 0 0.46-0.38 0.91-0.47 1.36-0.1 0.5 0.34 0.81 0.54 1.22 0.19 0.39 0.17 0.83 0.27 1.21 0.12 0.48 0.45 0.96 0.74 1.36 0.27 0.35 0.34 0.7 0.34 1.15v1.42c0 0.41-0.04 0.84-0.13 1.22-0.1 0.39 0 0.95 0 1.35 0 0.53 0.14 1.23 0.27 1.76 0.11 0.46 0.23 0.86 0.34 1.28 0.09 0.37 0.13 0.56 0.13 0.95 0 0.45-0.07 0.86-0.07 1.29v1.15c0 0.27 0.28 0.55 0.41 0.67 0.04 0.04 0.09 0.05 0.14 0.07 0.27 0.14 0.5 0.17 0.67 0.34l0.61 0.61c0.16 0.16 0.36 0.22 0.47 0.34"/>
      <path id="path3534" sodipodi:nodetypes="csssssssssssssssssssc" style="stroke-linejoin:round;stroke:#000000;stroke-linecap:round;stroke-width:2.9797;fill:none" d="m272.95 193.74c-0.18 0.35 0.46 0.09 0.82 0.26 0.36 0.18 0.58 0.57 0.82 0.8 0.19 0.19 0.2 0.8 0.27 1.06 0.07 0.29 0 0.7 0 1 0 0.4 0.19 0.47 0.27 0.86 0.07 0.35-0.13 0.74-0.13 1.13v1c0 0.42 0.01 0.85-0.07 1.26-0.11 0.51 0.39 1.71 0.61 1.92 0.35 0.35 0.61 0 0.61 0.73 0 0.45-0.03 0.79-0.2 1.2-0.15 0.36-0.07 0.87-0.07 1.26v1.46 1.2 1.13 1.12c0 0.42 0.08 0.55 0.21 0.8 0.15 0.31 0.26 0.7 0.34 1 0.08 0.33-0.37 0.55-0.48 0.66-0.13 0.13-0.69 0.21-0.81 0.33"/>
      <path id="path3536" sodipodi:nodetypes="csssssssssssssssssssssssc" style="stroke:#000000;stroke-linecap:round;stroke-width:3;fill:none" d="m302.47 193.82c-0.12-0.05-0.8 0.14-1.02 0.2-0.1 0.02-0.31 0.37-0.34 0.47-0.08 0.33-0.32 0.62-0.4 0.95-0.08 0.31-0.05 0.66-0.14 1.02-0.08 0.31 0.01 0.78 0.07 1.01 0.12 0.48 0.17 0.93 0.27 1.42 0.11 0.54 0.14 1.06 0.14 1.63v1.48c0 0.5-0.07 1.04-0.07 1.56 0 0.49-0.17 0.81-0.34 1.15s-0.14 1.03-0.14 1.49v2.03c0 0.48 0.01 0.83 0.21 1.22 0.22 0.44 0.36 0.45-0.14 0.95-0.26 0.25-0.13 0.93-0.13 1.28 0 0.4 0.19 0.6 0.34 0.88 0.22 0.44 0.33 0.47 0.33 1.02 0 0.39 0.18 0.76 0.34 1.08 0.18 0.35 0.31 0.73 0.48 0.95 0.23 0.31 0.32 0.45 0.6 0.74 0.22 0.22 0.4 0.62 0.75 0.88 0.32 0.24 0.6 0.33 0.81 0.54 0.22 0.22 0.49 0.28 0.74 0.47 0.28 0.21 0.64 0.63 0.88 0.82"/>
      <path id="path3538" sodipodi:nodetypes="cssssssssssssssssssc" style="stroke:#000000;stroke-linecap:round;stroke-width:3;fill:none" d="m374.53 193.68c0.72 0.57-0.82 0.36-0.68 0.81 0.13 0.4 0.98-0.01 1.15 0.34 0.2 0.39-0.73 1.18-0.81 1.49-0.09 0.38-0.11 0.73-0.2 1.08-0.11 0.44 0.07 0.92 0.07 1.36 0 0.45 0.03 0.82 0.13 1.21 0.11 0.45 0.23 0.73 0.34 1.15 0.12 0.47 0.61 0.65 0.61 1.16 0 0.4-0.11 0.71-0.2 1.08-0.11 0.44 0.12 0.72 0.27 1.01 0.21 0.43 0.34 0.65 0.34 1.15 0 0.42-0.21 0.68-0.21 1.09 0 0.38 0.05 0.67 0.14 1.01 0.08 0.31 0.44 0.56 0.54 0.95 0.07 0.28-0.13 0.8-0.2 1.08-0.08 0.3 0 0.71 0 1.02 0 0.36 0.4 0.54 0.4 0.94 0 0.34-0.01 0.72-0.07 0.95-0.04 0.19-0.33 0.47-0.47 0.61"/>
      <path id="path3540" sodipodi:nodetypes="cssssssssssssssssssssssc" style="stroke:#000000;stroke-linecap:round;stroke-width:3;fill:none" d="m404.44 193.68c-0.21 0.01-0.75 0.27-0.95 0.48-0.17 0.17-0.07 0.78-0.07 1.01 0 0.32-0.27 0.61-0.27 1.02v1.01 1.08c0 0.47 0.14 0.87 0.14 1.36 0 0.52-0.08 1.07-0.2 1.55-0.11 0.42-0.17 0.68 0 1.02 0.24 0.48 0.41 0.98 0.54 1.49 0.15 0.6-0.01 1.09-0.14 1.62-0.14 0.59-0.4 0.97-0.4 1.62 0 0.68 0.02 1.21 0.27 1.83 0.14 0.35 0.06 0.84 0.06 1.22 0 0.4-0.24 0.91-0.33 1.28-0.08 0.3 0.02 0.76 0.06 0.95 0.11 0.43 0.01 0.76 0.21 1.15 0.13 0.28 0.19 0.78 0.27 1.09 0.09 0.36 0.19 0.7 0.27 1.01 0.07 0.3 0 0.71 0 1.02 0 0.41 0.31 0.69 0.4 1.08 0.07 0.28 0.43 0.52 0.55 0.74 0.09 0.2 0.03 0.8 0.06 0.95 0.06 0.21 0.27 0.47 0.41 0.74"/>
      <path id="path3542" sodipodi:nodetypes="cssssssssssssssssc" style="stroke:#000000;stroke-linecap:round;stroke-width:3;fill:none" d="m467.84 193.68c0.33 0.12 0.51 0.61 0.75 1.08 0.5 1-0.96 2.59-1.22 3.39-0.28 0.83-0.68 1.55-0.68 2.43 0 0.77 0.95 1.17 0.95 1.97 0 0.45 0.07 0.94 0.07 1.42v0.27c0 0.43-0.07 0.9-0.07 1.35v1.42c0 0.53-0.2 1.06-0.2 1.63 0 0.51 0.4 0.68 0.4 1.21 0 0.29-0.2 0.63-0.2 1.02 0 0.43 0.01 0.78-0.14 1.15-0.13 0.33-0.06 0.85-0.06 1.22 0 0.38-0.07 0.69-0.07 1.08v1.08c0 0.43-0.25 0.66-0.34 1.02-0.06 0.25-0.87 0.97-0.95 1.08"/>
      <path id="path3544" sodipodi:nodetypes="cssssssssssssssssssc" style="stroke:#000000;stroke-linecap:round;stroke-width:3;fill:none" d="m498.56 193.68c-0.43 0.17-1.23 0.5-1.08 1.08 0.09 0.37 0.11 0.53 0 0.95-0.13 0.53-1.2 0.7-1.49 1.08-0.2 0.27-0.13 0.76-0.13 1.09 0 0.36-0.46 0.78-0.68 0.94-0.35 0.27-0.47 0.52-0.47 0.95 0 0.51-0.27 0.88-0.48 1.29-0.15 0.31-0.6 0.53-0.74 0.81-0.16 0.31-0.19 0.74-0.27 1.08-0.1 0.4-0.18 0.77-0.27 1.15-0.11 0.42-0.57 0.98-0.88 1.29-0.33 0.32-0.56 0.56-0.88 0.88-0.4 0.39-0.54 0.68-0.54 1.22 0 0.42-0.11 0.67-0.28 1.01-0.16 0.34-0.37 0.55-0.47 0.95-0.08 0.33 0 0.8 0 1.15 0 0.4 0.05 0.62 0.14 0.95 0.05 0.23 0.35 0.62 0.54 0.81 0.05 0.05 1.94 0.72 1.96 0.81"/>
      <path id="path3546" sodipodi:nodetypes="cssssssssssssssssc" style="stroke:#000000;stroke-linecap:round;stroke-width:3;fill:none" d="m567.11 193.82c0.43-0.05 1.51-0.1 1.76 0.4 0.2 0.41-0.07 1.27-0.07 1.69 0 0.71-0.03 1.22 0.14 1.9l0.06 0.27c0.04 0.16 0.09 0.32 0.14 0.47 0.33 1.18-0.41 2.05-0.68 3.12-0.15 0.59-0.18 0.9 0.2 1.42 0.1 0.12 0.23 0.22 0.34 0.34 0.31 0.31 0.58 0.9 0.68 1.28 0.1 0.4 0.07 0.86 0.07 1.29 0 0.6 0.13 1 0.27 1.55 0.09 0.39 0.17 0.89 0.34 1.22 0.18 0.36 0.02 0.8 0.2 1.15 0.15 0.3 0.07 0.86 0.07 1.22s0.19 0.89 0.27 1.29c0.07 0.35 0.13 0.65 0.13 1.01 0 0.03-0.22 0.45-0.2 0.47"/>
      <path id="path3548" sodipodi:nodetypes="csssssssssc" style="stroke:#000000;stroke-linecap:round;stroke-width:3;fill:none" d="m590.39 212.9c0 0.18-1.35-1.52-0.34-3.52 1.19-2.39 3.79-3.62 5.82-5.14 0.25-0.19 0.45-0.45 0.67-0.68 0.58-0.58-0.28-2.17-0.4-2.77-0.16-0.79-0.15-2.02 0.4-2.57 0.32-0.32 0.6-0.98 0.75-1.36 0.21-0.53 0.14-0.92 0.74-1.22 0.44-0.22 0.78-0.52 1.22-0.74 0.37-0.18 0.43-0.66 0.54-0.88 0.05-0.09 2.05-0.25 2.1-0.27"/>
    </g>
  </g>
  <metadata>
    <rdf:RDF>
      <cc:Work>
        <dc:format>image/svg+xml</dc:format>
        <dc:type rdf:resource="http://purl.org/dc/dcmitype/StillImage"/>
        <cc:license rdf:resource="http://creativecommons.org/licenses/publicdomain/"/>
        <dc:publisher>
          <cc:Agent rdf:about="http://openclipart.org/">
            <dc:title>Openclipart</dc:title>
          </cc:Agent>
        </dc:publisher>
        <dc:title>Notes</dc:title>
        <dc:date>2009-03-09T14:18:10</dc:date>
        <dc:description/>
        <dc:source>https://openclipart.org/detail/22037/notes-by-agone</dc:source>
        <dc:creator>
          <cc:Agent>
            <dc:title>agone</dc:title>
          </cc:Agent>
        </dc:creator>
        <dc:subject>
          <rdf:Bag>
            <rdf:li>notes</rdf:li>
            <rdf:li>paper</rdf:li>
          </rdf:Bag>
        </dc:subject>
      </cc:Work>
      <cc:License rdf:about="http://creativecommons.org/licenses/publicdomain/">
        <cc:permits rdf:resource="http://creativecommons.org/ns#Reproduction"/>
        <cc:permits rdf:resource="http://creativecommons.org/ns#Distribution"/>
        <cc:permits rdf:resource="http://creativecommons.org/ns#DerivativeWorks"/>
      </cc:License>
    </rdf:RDF>
  </metadata>
</svg>